<svg width="31" height="31" viewBox="0 0 31 31" fill="none" xmlns="http://www.w3.org/2000/svg">
<path d="M15.359 18.3804C16.8886 18.3804 18.1287 17.1404 18.1287 15.6107C18.1287 14.0811 16.8886 12.8411 15.359 12.8411C13.8294 12.8411 12.5894 14.0811 12.5894 15.6107C12.5894 17.1404 13.8294 18.3804 15.359 18.3804Z" fill="#AAAAAA"/>
<path d="M18.821 8.8125H11.8969C10.8898 8.8125 10.0085 9.12723 9.44199 9.69375C8.87546 10.2603 8.56073 11.1415 8.56073 12.1487V19.0728C8.56073 20.08 8.87546 20.9612 9.50493 21.5907C10.1344 22.1572 10.9527 22.4719 11.9599 22.4719H18.821C19.8282 22.4719 20.7094 22.1572 21.276 21.5907C21.9054 21.0242 22.2202 20.1429 22.2202 19.1358V12.2116C22.2202 11.2045 21.9054 10.3862 21.3389 9.7567C20.7094 9.12723 19.8911 8.8125 18.821 8.8125ZM15.359 19.8911C12.967 19.8911 11.0786 17.9398 11.0786 15.6107C11.0786 13.2188 13.0299 11.3304 15.359 11.3304C17.688 11.3304 19.7023 13.2188 19.7023 15.6107C19.7023 18.0027 17.751 19.8911 15.359 19.8911ZM19.8282 12.1487C19.2617 12.1487 18.821 11.708 18.821 11.1415C18.821 10.575 19.2617 10.1344 19.8282 10.1344C20.3947 10.1344 20.8353 10.575 20.8353 11.1415C20.8353 11.708 20.3947 12.1487 19.8282 12.1487Z" fill="#AAAAAA"/>
<path d="M15.4849 0C6.92414 0 0 6.92414 0 15.4849C0 24.0456 6.92414 30.9698 15.4849 30.9698C24.0456 30.9698 30.9698 24.0456 30.9698 15.4849C31.0327 6.92414 24.0456 0 15.4849 0ZM23.7309 19.1358C23.7309 20.5836 23.2273 21.8425 22.3461 22.7238C21.4648 23.605 20.2059 24.0456 18.8211 24.0456H11.9599C10.575 24.0456 9.31612 23.605 8.43486 22.7238C7.49066 21.8425 7.05003 20.5836 7.05003 19.1358V12.2117C7.05003 9.31612 9.00138 7.30182 11.9599 7.30182H18.884C20.3318 7.30182 21.5278 7.80539 22.409 8.68665C23.2903 9.5679 23.7309 10.7639 23.7309 12.2117V19.1358Z" fill="#AAAAAA"/>
</svg>
