<svg width="25" height="25" viewBox="0 0 25 25" fill="none" xmlns="http://www.w3.org/2000/svg">
<path d="M12.5 0C5.59645 0 0 5.59769 0 12.5005C0 19.4043 5.59645 25 12.5 25C19.4036 25 25 19.4043 25 12.5005C25 5.59769 19.403 0 12.5 0ZM15.8081 12.4482H13.6437C13.6437 15.9072 13.6437 20.1678 13.6437 20.1678H10.4355C10.4355 20.1678 10.4355 15.9509 10.4355 12.4482H8.90964V9.72273H10.4355V7.95667C10.4355 6.69266 11.0355 4.71948 13.6736 4.71948L16.0492 4.72862V7.37594C16.0492 7.37594 14.6046 7.37594 14.3244 7.37594C14.0426 7.37594 13.6442 7.51655 13.6442 8.11759V9.72324H16.0898L15.8081 12.4482Z" fill="black"/>
</svg>
