<svg width="26" height="25" viewBox="0 0 26 25" fill="none" xmlns="http://www.w3.org/2000/svg">
<path d="M12.8987 14.8373C14.1335 14.8373 15.1345 13.8363 15.1345 12.6015C15.1345 11.3667 14.1335 10.3657 12.8987 10.3657C11.6639 10.3657 10.6629 11.3667 10.6629 12.6015C10.6629 13.8363 11.6639 14.8373 12.8987 14.8373Z" fill="black"/>
<path d="M15.6935 7.11426H10.1041C9.29104 7.11426 8.57966 7.36832 8.12234 7.82564C7.66502 8.28296 7.41095 8.99435 7.41095 9.80736V15.3968C7.41095 16.2098 7.66502 16.9212 8.17315 17.4293C8.68128 17.8867 9.34185 18.1407 10.1549 18.1407H15.6935C16.5065 18.1407 17.2179 17.8867 17.6752 17.4293C18.1834 16.972 18.4374 16.2606 18.4374 15.4476V9.85817C18.4374 9.04516 18.1834 8.38459 17.726 7.87646C17.2179 7.36832 16.5573 7.11426 15.6935 7.11426ZM12.8988 16.0574C10.9679 16.0574 9.44348 14.4822 9.44348 12.6021C9.44348 10.6712 11.0187 9.14679 12.8988 9.14679C14.7789 9.14679 16.4049 10.6712 16.4049 12.6021C16.4049 14.533 14.8297 16.0574 12.8988 16.0574ZM16.5065 9.80736C16.0492 9.80736 15.6935 9.45167 15.6935 8.99435C15.6935 8.53703 16.0492 8.18134 16.5065 8.18134C16.9638 8.18134 17.3195 8.53703 17.3195 8.99435C17.3195 9.45167 16.9638 9.80736 16.5065 9.80736Z" fill="black"/>
<path d="M13.0004 0C6.08976 0 0.500305 5.58946 0.500305 12.5001C0.500305 19.4107 6.08976 25.0001 13.0004 25.0001C19.911 25.0001 25.5004 19.4107 25.5004 12.5001C25.5512 5.58946 19.911 0 13.0004 0ZM19.6569 15.4472C19.6569 16.6159 19.2504 17.6322 18.539 18.3436C17.8276 19.055 16.8114 19.4107 15.6935 19.4107H10.1548C9.03693 19.4107 8.02067 19.055 7.30928 18.3436C6.54708 17.6322 6.19139 16.6159 6.19139 15.4472V9.85777C6.19139 7.52036 7.7666 5.89434 10.1548 5.89434H15.7443C16.913 5.89434 17.8784 6.30084 18.5898 7.01223C19.3012 7.72362 19.6569 8.68907 19.6569 9.85777V15.4472Z" fill="black"/>
</svg>
