<svg width="31" height="31" viewBox="0 0 31 31" fill="none" xmlns="http://www.w3.org/2000/svg">
<path d="M15.5 0C6.93959 0 0 6.94114 0 15.5006C0 24.0614 6.93959 31 15.5 31C24.0604 31 31 24.0614 31 15.5006C31 6.94114 24.0598 0 15.5 0ZM19.6021 15.4358H16.9181C16.9181 19.725 16.9181 25.0081 16.9181 25.0081H12.9401C12.9401 25.0081 12.9401 19.7791 12.9401 15.4358H11.048V12.0562H12.9401V9.86627C12.9401 8.2989 13.6841 5.85216 16.9553 5.85216L19.9011 5.86349V9.14616C19.9011 9.14616 18.1097 9.14616 17.7622 9.14616C17.4129 9.14616 16.9188 9.32052 16.9188 10.0658V12.0568H19.9514L19.6021 15.4358Z" fill="#AAAAAA"/>
</svg>
